<svg xmlns="http://www.w3.org/2000/svg" class="ionicon" viewBox="0 0 512 512"><title>Analytics</title><path fill="none" stroke="currentColor" stroke-linecap="round" stroke-linejoin="round" stroke-width="32" d="M344 280l88-88M232 216l64 64M80 320l104-104"/><circle cx="456" cy="168" r="24" fill="none" stroke="currentColor" stroke-linecap="round" stroke-linejoin="round" stroke-width="32"/><circle cx="320" cy="304" r="24" fill="none" stroke="currentColor" stroke-linecap="round" stroke-linejoin="round" stroke-width="32"/><circle cx="208" cy="192" r="24" fill="none" stroke="currentColor" stroke-linecap="round" stroke-linejoin="round" stroke-width="32"/><circle cx="56" cy="344" r="24" fill="none" stroke="currentColor" stroke-linecap="round" stroke-linejoin="round" stroke-width="32"/></svg>
<svg xmlns="http://www.w3.org/2000/svg" class="ionicon" viewBox="0 0 512 512"><title>Book</title><path d="M256 160c16-63.16 76.43-95.41 208-96a15.94 15.94 0 0116 16v288a16 16 0 01-16 16c-128 0-177.45 25.81-208 64-30.37-38-80-64-208-64-9.88 0-16-8.05-16-17.93V80a15.94 15.94 0 0116-16c131.57.59 192 32.84 208 96zM256 160v288" fill="none" stroke="currentColor" stroke-linecap="round" stroke-linejoin="round" stroke-width="32"/></svg>
<svg xmlns="http://www.w3.org/2000/svg" class="ionicon" viewBox="0 0 512 512"><title>Cellular</title><rect x="416" y="96" width="64" height="320" rx="8" ry="8" fill="none" stroke="currentColor" stroke-linejoin="round" stroke-width="32"/><rect x="288" y="176" width="64" height="240" rx="8" ry="8" fill="none" stroke="currentColor" stroke-linejoin="round" stroke-width="32"/><rect x="160" y="240" width="64" height="176" rx="8" ry="8" fill="none" stroke="currentColor" stroke-linejoin="round" stroke-width="32"/><rect x="32" y="304" width="64" height="112" rx="8" ry="8" fill="none" stroke="currentColor" stroke-linejoin="round" stroke-width="32"/></svg>
<svg xmlns="http://www.w3.org/2000/svg" class="ionicon" viewBox="0 0 512 512"><title>Cube</title><path d="M448 341.37V170.61A32 32 0 00432.11 143l-152-88.46a47.94 47.94 0 00-48.24 0L79.89 143A32 32 0 0064 170.61v170.76A32 32 0 0079.89 369l152 88.46a48 48 0 0048.24 0l152-88.46A32 32 0 00448 341.37z" fill="none" stroke="currentColor" stroke-linecap="round" stroke-linejoin="round" stroke-width="32"/><path fill="none" stroke="currentColor" stroke-linecap="round" stroke-linejoin="round" stroke-width="32" d="M69 153.99l187 110 187-110M256 463.99v-200"/></svg>
